<?xml version="1.0" encoding="UTF-8" standalone="no"?>
<!-- Created with Inkscape (http://www.inkscape.org/) -->

<svg
   xmlns:dc="http://purl.org/dc/elements/1.1/"
   xmlns:cc="http://creativecommons.org/ns#"
   xmlns:rdf="http://www.w3.org/1999/02/22-rdf-syntax-ns#"
   xmlns:svg="http://www.w3.org/2000/svg"
   xmlns="http://www.w3.org/2000/svg"
   xmlns:sodipodi="http://sodipodi.sourceforge.net/DTD/sodipodi-0.dtd"
   xmlns:inkscape="http://www.inkscape.org/namespaces/inkscape"
   width="210mm"
   height="297mm"
   viewBox="0 0 210 297"
   version="1.1"
   id="svg8"
   inkscape:version="0.92.2 5c3e80d, 2017-08-06"
   sodipodi:docname="logo.svg">
  <defs
     id="defs2">
    <style
       id="style4656">.cls-1{fill:none;}.cls-2{fill:#1da1f2;}</style>
    <clipPath
       clipPathUnits="userSpaceOnUse"
       id="clipPath4765">
      <path
         style="fill:#1da1f2;stroke-width:0.13276413"
         inkscape:connector-curvature="0"
         class="cls-2"
         d="m 59.190281,170.84055 c 12.245311,2.63197 21.123543,-6.0736 23.01452,-14.87143 0.06194,-0.28815 0.123592,-0.57501 0.165502,-0.86475 a 13.855264,13.855264 0 0 0 4.062283,-2.73226 13.592391,13.592391 0 0 1 -4.049043,0.22559 6.8333697,6.8333697 0 0 0 3.718475,-3.0533 13.646825,13.646825 0 0 1 -4.574916,0.70734 6.8161104,6.8161104 0 0 0 -12.650898,3.63341 19.333112,19.333112 0 0 1 -12.226044,-9.90515 6.8147827,6.8147827 0 0 0 0.150995,9.33041 6.7590218,6.7590218 0 0 1 -2.842628,-1.48279 c -0.0059,0.0272 -0.01201,0.0558 -0.01812,0.0844 a 6.8121273,6.8121273 0 0 0 3.938511,7.67437 6.7988511,6.7988511 0 0 1 -3.030715,-0.53191 6.8174381,6.8174381 0 0 0 5.226246,5.96037 13.664084,13.664084 0 0 1 -8.882012,1.07844 13.861903,13.861903 0 0 1 -1.564209,-0.43669 19.278679,19.278679 0 0 0 9.563185,5.17879"
         id="path4767"
         clip-path="none" />
    </clipPath>
  </defs>
  <sodipodi:namedview
     id="base"
     pagecolor="#ffffff"
     bordercolor="#666666"
     borderopacity="1.0"
     inkscape:pageopacity="0.0"
     inkscape:pageshadow="2"
     inkscape:zoom="0.7"
     inkscape:cx="197.63352"
     inkscape:cy="871.32306"
     inkscape:document-units="mm"
     inkscape:current-layer="layer1"
     showgrid="false"
     showguides="true"
     inkscape:guide-bbox="true"
     inkscape:window-width="1440"
     inkscape:window-height="855"
     inkscape:window-x="0"
     inkscape:window-y="1"
     inkscape:window-maximized="1" />
  <metadata
     id="metadata5">
    <rdf:RDF>
      <cc:Work
         rdf:about="">
        <dc:format>image/svg+xml</dc:format>
        <dc:type
           rdf:resource="http://purl.org/dc/dcmitype/StillImage" />
        <dc:title></dc:title>
      </cc:Work>
    </rdf:RDF>
  </metadata>
  <g
     inkscape:label="Layer 1"
     inkscape:groupmode="layer"
     id="layer1">
    <g
       id="g5059"
       inkscape:export-filename="/Users/bastian/Downloads/twarxiv.g4806.png"
       inkscape:export-xdpi="32.029999"
       inkscape:export-ydpi="32.029999">
      <circle
         inkscape:export-ydpi="32.029999"
         inkscape:export-xdpi="32.029999"
         transform="matrix(3.2428688,0,0,3.2428688,-123.32877,-312.50188)"
         style="fill:#80898f;fill-opacity:1;stroke:#1da1f2;stroke-width:0.80400002;stroke-miterlimit:4;stroke-dasharray:none;stroke-opacity:1"
         id="circle5029"
         cx="62.517258"
         cy="131.03065"
         r="27.005751"
         clip-path="url(#clipPath4765)" />
      <circle
         inkscape:export-ydpi="32.029999"
         inkscape:export-xdpi="32.029999"
         transform="matrix(3.2428688,0,0,3.2428688,-118.56633,-310.3852)"
         style="fill:#4d85a8;fill-opacity:1;stroke:#1da1f2;stroke-width:0.80400002;stroke-miterlimit:4;stroke-dasharray:none;stroke-opacity:1"
         id="circle5027"
         cx="62.517258"
         cy="131.03065"
         r="27.005751"
         clip-path="url(#clipPath4765)" />
      <circle
         clip-path="url(#clipPath4765)"
         r="27.005751"
         cy="131.03065"
         cx="62.517258"
         id="circle5025"
         style="fill:#3b7395;fill-opacity:1;stroke:#1da1f2;stroke-width:0.80400002;stroke-miterlimit:4;stroke-dasharray:none;stroke-opacity:1"
         transform="matrix(3.2428688,0,0,3.2428688,-112.74546,-308.26852)"
         inkscape:export-xdpi="32.029999"
         inkscape:export-ydpi="32.029999" />
      <rect
         inkscape:export-ydpi="32.029999"
         inkscape:export-xdpi="32.029999"
         transform="rotate(23.054373)"
         id="rect4662"
         height="53.105652"
         width="53.105652"
         class="cls-1"
         x="94.186928"
         y="92.950974"
         style="fill:none;stroke-width:0.13276413" />
      <circle
         inkscape:export-ydpi="32.029999"
         inkscape:export-xdpi="32.029999"
         clip-path="none"
         r="87.576103"
         cy="119.82172"
         cx="97.481857"
         id="path4560"
         style="fill:none;fill-opacity:1;stroke:#1da1f2;stroke-width:2.60726666;stroke-miterlimit:4;stroke-dasharray:none;stroke-opacity:1" />
      <text
         inkscape:export-ydpi="32.029999"
         inkscape:export-xdpi="32.029999"
         id="text12"
         y="130.84654"
         x="27.895061"
         style="font-style:normal;font-weight:normal;font-size:42.46715927px;line-height:1.25;font-family:sans-serif;letter-spacing:0px;word-spacing:0px;fill:#000000;fill-opacity:1;stroke:none;stroke-width:1.06167889"
         xml:space="preserve"><tspan
           style="font-style:normal;font-variant:normal;font-weight:normal;font-stretch:normal;font-family:'Helvetica Neue';-inkscape-font-specification:'Helvetica Neue';stroke-width:1.06167889"
           y="130.84654"
           x="27.895061"
           id="tspan10"
           sodipodi:role="line"><tspan
   id="tspan14"
   style="fill:#1da1f2;fill-opacity:1;stroke-width:1.06167889">Tw</tspan>Arχiv</tspan></text>
      <circle
         inkscape:export-ydpi="32.029999"
         inkscape:export-xdpi="32.029999"
         transform="matrix(3.2428688,0,0,3.2428688,-105.86627,-305.0935)"
         style="fill:#1da1f2;fill-opacity:1;stroke:#1da1f2;stroke-width:0.80400002;stroke-miterlimit:4;stroke-dasharray:none;stroke-opacity:1"
         id="circle4755"
         cx="62.517258"
         cy="131.03065"
         r="27.005751"
         clip-path="url(#clipPath4765)" />
    </g>
  </g>
</svg>
